<svg width="16" height="16" viewBox="0 0 16 16" fill="none" xmlns="http://www.w3.org/2000/svg">
<rect width="16" height="16" fill="white"/>
<path d="M6.2 5C5.88174 5 5.57652 5.12643 5.35147 5.35147C5.12643 5.57652 5 5.88174 5 6.2V11H6.2V6.2H7.4V10.4H8.6V6.2H9.8V11H11V6.2C11 5.88174 10.8736 5.57652 10.6485 5.35147C10.4235 5.12643 10.1183 5 9.8 5H6.2ZM8 2C8.78793 2 9.56815 2.15519 10.2961 2.45672C11.0241 2.75825 11.6855 3.20021 12.2426 3.75736C12.7998 4.31451 13.2417 4.97595 13.5433 5.7039C13.8448 6.43185 14 7.21207 14 8C14 9.5913 13.3679 11.1174 12.2426 12.2426C11.1174 13.3679 9.5913 14 8 14C7.21207 14 6.43185 13.8448 5.7039 13.5433C4.97595 13.2417 4.31451 12.7998 3.75736 12.2426C2.63214 11.1174 2 9.5913 2 8C2 6.4087 2.63214 4.88258 3.75736 3.75736C4.88258 2.63214 6.4087 2 8 2Z" fill="#3BEA6E"/>
</svg>
